HIERARCHY
ROOT Hips
{
  OFFSET 0 0 0
  CHANNELS 6 Xposition Yposition Zposition Zrotation Xrotation Yrotation
  JOINT Spine
  {
    OFFSET 0 10.1816 0.131521
    CHANNELS 3 Zrotation Xrotation Yrotation
    JOINT Spine1
    {
      OFFSET 0 10.0835 -1.0008
      CHANNELS 3 Zrotation Xrotation Yrotation
      JOINT Spine2
      {
        OFFSET 0 9.10001 -1.37342
        CHANNELS 3 Zrotation Xrotation Yrotation
        JOINT Neck
        {
          OFFSET 0 16.6717 -2.51617
          CHANNELS 3 Zrotation Xrotation Yrotation
          JOINT Head
          {
            OFFSET 0 9.61788 1.68501
            CHANNELS 3 Zrotation Xrotation Yrotation
            End Site
            {
              OFFSET 0 0 0
            }
          }
        }
        JOINT LeftShoulder
        {
          OFFSET 4.57045 10.946 -2.62799
          CHANNELS 3 Zrotation Xrotation Yrotation
          JOINT LeftArm
          {
            OFFSET 10.5924 -0.524583 -2.23212
            CHANNELS 3 Zrotation Xrotation Yrotation
            JOINT LeftForeArm
            {
              OFFSET 27.8415 -8.94286e-05 3.74589e-05
              CHANNELS 3 Zrotation Xrotation Yrotation
              JOINT LeftHand
              {
                OFFSET 28.3288 -1.74407e-05 3.78045e-05
                CHANNELS 3 Zrotation Xrotation Yrotation
                End Site
                {
                  OFFSET 0 0 0
                }
              }
            }
          }
        }
        JOINT RightShoulder
        {
          OFFSET -4.56997 10.9462 -2.62802
          CHANNELS 3 Zrotation Xrotation Yrotation
          JOINT RightArm
          {
            OFFSET -10.5928 -0.524798 -2.2321
            CHANNELS 3 Zrotation Xrotation Yrotation
            JOINT RightForeArm
            {
              OFFSET -27.8415 -3.30792e-05 1.16763e-05
              CHANNELS 3 Zrotation Xrotation Yrotation
              JOINT RightHand
              {
                OFFSET -28.3288 0 5.5816e-05
                CHANNELS 3 Zrotation Xrotation Yrotation
                End Site
                {
                  OFFSET 0 0 0
                }
              }
            }
          }
        }
      }
    }
  }
  JOINT LeftUpLeg
  {
    OFFSET 8.20778 -6.75171 -1.59956
    CHANNELS 3 Zrotation Xrotation Yrotation
    JOINT LeftLeg
    {
      OFFSET 0 -44.3705 0.284643
      CHANNELS 3 Zrotation Xrotation Yrotation
      JOINT LeftFoot
      {
        OFFSET 0 -44.4279 -2.98219
        CHANNELS 3 Zrotation Xrotation Yrotation
        JOINT LeftToeBase
        {
          OFFSET 0 -8.72867 10.7106
          CHANNELS 3 Zrotation Xrotation Yrotation
          End Site
          {
            OFFSET 0 0 0
          }
        }
      }
    }
  }
  JOINT RightUpLeg
  {
    OFFSET -8.2078 -6.75166 -1.59956
    CHANNELS 3 Zrotation Xrotation Yrotation
    JOINT RightLeg
    {
      OFFSET 0 -44.3705 0.286156
      CHANNELS 3 Zrotation Xrotation Yrotation
      JOINT RightFoot
      {
        OFFSET 0 -44.4277 -2.98379
        CHANNELS 3 Zrotation Xrotation Yrotation
        JOINT RightToeBase
        {
          OFFSET 0 -8.72867 10.7106
          CHANNELS 3 Zrotation Xrotation Yrotation
          End Site
          {
            OFFSET 0 0 0
          }
        }
      }
    }
  }
}
MOTION
Frames: 11
Frame Time:	0.0333333
 1.31312  102.759 -72.1386 0.570174  8.27004 -7.20354 -0.294777 -0.249779  0.727737 -0.586368 -0.503277    1.4542 -0.586368 -0.503279    1.4542 -10.5924 -15.1009 -3.36459  16.5585  24.3573 -4.39155   8.55971 -0.638656 -0.923403  -83.7432   4.00953 -0.547911  11.0604 -1.59022 -17.3089 -0.395433   7.52228  -1.12581 -1.58716 -1.86359  0.39487  78.3308  24.7763 -2.67352 -14.1411 -2.93072  18.6833 0.976546  18.7447 0.339989  2.44373 -12.5845 -1.21556 -0.626595    19.264  -1.47146 -2.68069 -14.2935  9.29741   1.41338 -0.985165  0.190784 0.781681 -11.6922  17.8982 -0.851864   14.5172   2.17931 0.467071 -11.6361 -11.8309  0.626869  0.554372 -0.798487 
 1.51067  102.196 -72.9079 0.91099 10.0451  -7.409 -0.664273 -0.587329 -0.467193 -0.647837  0.648839   1.18074 -0.738423 -0.602418   2.34169 -10.0938 -16.1899 -3.62949  15.8368  22.2053 -2.30552  8.44895 0.202458 -1.72397 -84.1518  4.84113 -0.20459  10.9224  -2.0387 -16.6427 -0.10557  7.26429 -1.29792 -0.977816  -2.03069  0.836827  78.7143  24.6251 -2.80896 -14.9854 -2.83194  18.4291  2.20696  18.7177 -1.30909   1.03989  -16.5308 -0.496152  3.24787  22.2336 -4.25059 -3.54914 -11.8644  7.81462 0.11911 1.42305 1.28582  1.44237 -14.8654  19.0472 -2.47801  16.5713  3.39328  1.59572 -11.9883 -11.0742  1.40335  3.07551 -2.67068 
 1.66204   101.68 -73.8272  1.61522  11.3837 -7.57338  -1.22888 -0.314755 -0.771586 -1.17344  1.47512   1.1276  -0.886156 -0.0158393    2.56256 -10.0401 -16.4222 -3.43546 15.4659 20.1166 -1.5968  7.90488 0.480027 -1.63728  -84.0488   5.98864 -0.291909  11.7035 -2.10585 -17.2427 -0.175362    6.6561  -1.12736 -0.645407  -2.10641  0.836515  78.6793  24.6893 -2.40049 -15.4331 -2.77765  18.4679  2.83724  18.1488 -1.80654  0.306148  -19.4901 0.0358198  3.93567  23.9604 -4.51554 -3.44657 -12.2927  6.90505 -0.192297   1.00305   1.78583  1.68451 -17.3172  19.4283 -3.47275  17.7921  3.68631   1.5906 -13.1677 -11.2319  1.81398  3.27418 -3.67768 
 1.82453  101.376 -74.5642  1.93642  12.3973 -7.43121  -1.47424 -0.347037 -0.662544 -1.46286  2.05227 0.950413 -1.04414 0.586064  2.54342 -10.0247 -16.5062  -3.2743 15.6209 18.4687 -1.4047  7.73168 0.159152 -1.50271  -83.8004   7.36238 -0.397939  12.5408  -2.1641 -18.3039 -0.144094   5.93878  -1.02938 -0.649456  -2.22248  0.836666  78.1054  24.7373 -1.73247 -15.5036 -2.64212  18.6941  3.00201  17.7533 -1.82356 0.214951  -21.806 0.835098  4.04742  25.2404 -4.56206 -3.52037 -12.2501  5.77368 -0.131675  0.497581   2.08255   1.8423 -19.7962   19.839 -3.61098   19.811  3.73087  2.07858 -14.0429 -11.3551  2.34509  3.38228 -4.02319 
 2.05651  100.878 -75.3002   2.1788  13.2873 -7.26591   -1.61515 -0.0024315  -0.523446 -1.67111  2.40726 0.924438 -1.05178 0.827615  2.56197 -9.74812 -16.3225 -2.99652  15.3071  16.0666 -1.30219    7.6581 -0.266809  -1.56273 -83.1679  8.72191 -1.07318  13.5905 -2.32899 -19.4404 -0.283664    4.9064   -0.7992 -1.03495 -2.55672 0.985502   77.4827   25.3011 -0.630884 -16.0074 -2.65537  19.1975  2.96046  17.1201 -1.71398 0.0490215  -23.9518   1.81615  4.15608  26.4674 -4.60945 -3.49585 -12.7805  5.06237 -0.290171 -0.218467   2.61052   2.2536 -22.5838  20.3335 -3.82259  22.8039  3.80779  2.29683 -15.0077  -11.912  3.02599  3.04433 -4.40382 
 2.37897   100.55 -75.8952  3.04915  14.2724 -7.34546  -2.12387 -0.390502 -0.648737 -2.00089  2.81002 0.708688 -1.07413  1.40481  2.79317 -9.52097 -16.7693 -2.92766   15.218  12.9059 -1.16529   7.79725 -0.405483  -1.64871 -82.5938  10.2599 -1.08002  13.8857 -2.58273 -20.0425 -0.235067   4.00619 -0.809991 -0.819271  -2.62056   1.14671 76.8145 25.9545 0.21814 -15.8204 -2.75565  19.6534   3.2515  16.3196 -1.93253 -0.717193  -27.0384   2.92831  4.40487  29.1629 -4.72558 -3.27988 -12.5031  4.22415 -0.399256 -0.220135   2.70158  2.00331 -25.2585  20.8596 -4.00478  25.2797  3.88203  1.44783 -15.6303  -12.121  4.02489  3.63146 -5.06124 
 2.86978   99.841 -76.8827  3.21115  14.7034 -7.37382  -1.63472   1.09478 -0.514426 -2.10363  3.57519  0.75661 -1.01757  1.42196  2.50686 -9.13524 -15.8493 -2.69736  15.0641  10.9277 -1.13189  7.39746 -1.17112 -2.02983 -81.8887  11.6455 -2.13496  14.5085 -2.58661  -20.765 -0.326007   3.22457  -0.64531 -1.48135 -3.17708  1.44238 75.9303 25.7289 1.77775 -16.6365 -2.77108  20.1792  3.09991  16.2646 -1.70713 -0.438367   -29.234   3.70556  4.05212  29.3076 -4.55271 -3.33858 -13.7968  3.56971  -0.56266 -0.732092   3.47766  2.41306 -27.9704   21.235 -4.27397   28.751  4.11565  1.69753 -16.7418 -13.0877  4.39251  2.96624 -5.57391 
 3.41867  99.4179 -77.4307  3.80587  15.5718 -7.28691  -1.57795  0.840832 -0.838822 -2.21957  4.28869 0.457387 -1.07351  2.22493  2.36589 -8.88449 -16.2919 -2.82139  14.7887  9.21256 -1.04715  7.50139 -1.17097 -1.93075 -81.3418  13.3151 -2.45798  14.3034 -2.85031 -20.9622 -0.296363   2.85821 -0.750332 -0.969673  -3.05902   1.65985 74.7287 26.1486 2.69009 -16.5533 -3.18133  20.8083  3.02476  15.1776 -1.65058 -1.03432 -31.8205  4.36429  4.40544  31.3085 -4.72885 -3.63596 -13.0956  2.37355 -0.186218 -0.140255   3.59786  2.00438 -30.3662   21.161 -4.43858  30.8394  4.19758  1.42895 -16.9848 -12.9389  5.20314  4.01119 -5.99286 
 3.98904  98.8858 -78.1501  4.02694  16.2756 -7.14533  -1.20051   1.52761 -0.891883 -2.15627  4.80962 0.353749 -0.853025    2.5706    2.2085 -8.59674 -15.9292  -2.6656   14.5634    7.6026 -0.867202  7.13724 -1.27157 -2.02549 -80.6329  14.3707 -3.33063  14.5002 -2.71833 -20.8856 -0.27575   2.4568 -0.75043  -1.2395 -3.12481  1.61676 74.1356 25.7331 3.53825  -16.849 -3.32291  21.0604  3.00805  14.8215 -1.50199 -1.32578 -33.7465  4.67294  4.53171  32.6827 -4.79583 -3.65268 -13.8676  1.21998  -0.171296 0.00303364     4.0406 2.05779 -32.657 21.4151 -4.63815  33.1032  4.41165  1.08317 -17.5982 -13.1331  5.59691  3.85717 -6.01984 
 4.49549  98.4552 -78.8182   4.3994  17.1094 -6.77316  -1.02108   1.79688 -0.984624 -1.99385  5.49767 0.264262 -0.893497   3.09179   2.01993 -8.49533  -15.901 -2.73905  14.3267  6.49031 -0.90587  7.20552 -1.38715 -2.02205 -80.2587   15.558 -3.81376  14.4408 -2.70052 -21.0654 -0.15587  2.02922 -0.78441 -1.05743 -3.07259  1.73457 73.3923 25.5448 4.05462 -16.8152 -3.43583  21.3631  2.92957  14.0704 -1.52558 -1.91181 -35.9315  4.75283  4.68166  34.1617 -4.87844 -3.81417 -13.9864 0.268872  0.20606 0.117829  4.28751  1.66151 -34.8228  21.1868 -4.7977 34.8015 4.50077   1.0734 -17.9717 -13.0586  6.02625  4.29581 -6.05019 
 4.90393  98.0534 -79.4153  4.5345 17.7057 -6.1919 -0.678681    2.3944  -0.98557 -1.89409  6.01159 0.222058 -0.73266  3.47164  1.84547 -8.40948 -15.6374 -2.70319   14.3109   5.57938 -0.988374  7.06108 -1.52869 -1.98162 -79.7625  16.2544 -4.06505  14.4192 -2.58637  -21.009 -0.060396   1.34332 -0.794311 -1.04932 -3.01912  1.68455 73.1561 24.9009 4.15394 -16.7613 -3.45398  21.4306  2.87964   13.423 -1.44929 -2.43715 -37.5445  4.51315 4.79383 35.2351 -4.9423  -3.76105   -14.373 -0.469707 0.348846 0.481054  4.43891  1.56516 -36.4989  21.2844 -4.95086  36.3683   4.5899 0.750302 -18.6189  -12.923  6.01538  4.19355 -6.04939 
